<?xml version="1.0" standalone="no"?>
<!DOCTYPE svg PUBLIC "-//W3C//DTD SVG 20010904//EN"
 "http://www.w3.org/TR/2001/REC-SVG-20010904/DTD/svg10.dtd">
<svg version="1.0" xmlns="http://www.w3.org/2000/svg"
 width="300.000000pt" height="225.000000pt" viewBox="0 0 300.000000 225.000000"
 preserveAspectRatio="xMidYMid meet">
<metadata>
Created by potrace 1.10, written by Peter Selinger 2001-2011
</metadata>
<g transform="translate(0.000000,225.000000) scale(0.100000,-0.100000)"
fill="#000000" stroke="none">
<path d="M370 2147 c0 -1 191 -252 425 -557 233 -305 425 -557 425 -560 0 -3
-182 -213 -405 -467 l-405 -463 175 0 174 0 314 358 313 359 274 -359 274
-358 349 0 c345 0 349 0 336 20 -8 10 -93 124 -190 252 -97 128 -292 385 -433
571 l-256 338 348 397 c190 218 362 414 380 435 l34 37 -175 0 -175 0 -282
-322 c-155 -178 -285 -324 -289 -326 -3 -1 -117 144 -251 323 l-245 325 -357
0 c-197 0 -358 -1 -358 -3z m757 -99 c32 -40 69 -89 82 -108 13 -19 36 -47 49
-62 14 -16 22 -28 17 -28 -5 0 -2 -6 7 -12 14 -12 65 -78 158 -205 19 -26 40
-53 45 -60 6 -6 27 -31 48 -56 44 -53 58 -52 104 4 35 44 139 161 191 216 17
19 32 37 32 40 0 3 8 13 18 22 10 9 45 48 77 86 32 39 61 72 65 75 3 3 36 40
74 83 l68 77 128 0 c69 0 130 -3 133 -6 8 -8 -72 -100 -84 -96 -5 1 -8 -2 -7
-6 3 -8 -133 -170 -317 -377 -44 -49 -105 -119 -135 -155 -30 -36 -78 -90
-107 -120 -29 -30 -53 -64 -53 -75 0 -18 228 -333 286 -396 13 -14 24 -30 24
-36 0 -6 4 -13 9 -15 7 -3 61 -73 178 -231 15 -21 36 -47 46 -58 9 -10 14 -19
10 -19 -4 0 2 -9 13 -19 10 -11 28 -31 39 -46 11 -14 28 -35 38 -46 9 -10 17
-21 16 -24 0 -4 24 -36 53 -72 29 -36 52 -69 50 -74 -1 -5 2 -9 6 -9 8 0 82
-93 82 -104 0 -3 -139 -6 -308 -6 l-308 0 -31 33 c-16 17 -79 97 -139 177 -60
80 -121 158 -136 175 -16 16 -28 33 -28 37 0 4 -6 13 -13 20 -7 7 -44 56 -84
108 -111 148 -127 164 -152 151 -11 -6 -24 -17 -28 -25 -4 -8 -45 -54 -89
-102 -45 -49 -106 -118 -136 -154 -30 -36 -69 -80 -87 -99 -17 -18 -50 -56
-74 -84 -69 -81 -129 -149 -173 -195 l-41 -42 -132 0 c-72 0 -131 3 -131 8 0
4 8 14 18 23 9 8 37 39 62 69 81 97 134 155 137 150 1 -3 15 14 30 37 23 33
318 374 398 459 18 19 80 93 114 137 14 18 9 29 -41 92 -4 6 -44 57 -88 115
-45 58 -88 115 -98 127 -9 12 -62 81 -117 154 -55 72 -156 204 -224 293 -68
88 -133 174 -145 189 -11 16 -38 50 -58 76 -21 27 -35 51 -32 54 4 3 147 6
319 7 l313 0 59 -72z"/>
<path d="M771 1963 l-22 -18 48 -65 c26 -36 58 -76 70 -90 13 -14 23 -28 23
-32 0 -3 6 -13 13 -20 7 -7 26 -31 42 -53 17 -22 34 -43 39 -46 5 -4 5 -12 2
-18 -4 -6 -3 -10 2 -9 5 2 30 -24 56 -57 25 -33 51 -66 58 -74 13 -14 39 -50
75 -101 10 -13 52 -67 93 -120 41 -53 80 -103 85 -112 10 -16 80 -105 115
-145 10 -13 15 -23 12 -23 -4 0 -2 -4 4 -8 10 -7 65 -76 109 -137 11 -16 48
-65 83 -109 34 -45 79 -103 100 -130 20 -27 57 -75 82 -106 25 -32 66 -87 93
-124 26 -37 59 -71 73 -76 38 -15 176 -12 197 4 24 19 17 33 -87 169 -50 65
-98 128 -106 140 -8 12 -35 49 -60 82 -149 194 -299 393 -325 430 -16 23 -43
58 -58 76 -15 19 -74 95 -130 170 -205 273 -341 454 -347 459 -3 3 -29 37 -59
77 -29 39 -63 74 -75 77 -11 3 -58 6 -102 6 -63 0 -87 -4 -103 -17z m591 -518
c208 -275 486 -643 618 -817 l240 -318 -98 0 c-83 0 -99 3 -108 18 -7 10 -284
374 -616 808 -332 435 -608 796 -612 802 -6 10 16 12 95 10 l103 -3 378 -500z"/>
</g>
</svg>
